<?xml version="1.0" encoding="utf-8"?>
<!-- Generator: Adobe Illustrator 28.0.0, SVG Export Plug-In . SVG Version: 6.00 Build 0)  -->
<svg version="1.1" id="Layer_1" xmlns="http://www.w3.org/2000/svg" xmlns:xlink="http://www.w3.org/1999/xlink" x="0px" y="0px"
	 viewBox="0 0 1920 1080" style="enable-background:new 0 0 1920 1080;" xml:space="preserve">
<style type="text/css">
	.st0{fill:#191918;}
	.st1{fill:#F4F1EA;}
	.st2{fill:#022305;}
	.st3{fill:#0B1F1D;}
	.st4{fill:#FCFCFA;}
	.st5{fill:#C19721;}
	.st6{fill:#EAC242;}
	.st7{stroke:#000000;stroke-width:2.1345;stroke-miterlimit:10;}
	.st8{stroke:#000000;stroke-width:1.6008;stroke-miterlimit:10;}
	.st9{stroke:#000000;stroke-width:1.8098;stroke-miterlimit:10;}
	.st10{stroke:#000000;stroke-width:1.3574;stroke-miterlimit:10;}
	.st11{stroke:#000000;stroke-width:2.1944;stroke-miterlimit:10;}
	.st12{stroke:#000000;stroke-width:1.6458;stroke-miterlimit:10;}
	.st13{fill:#FFFFFF;}
</style>
<rect class="st4" width="1920" height="1080"/>
<g>
	<g>
		<path class="st7" d="M467.73,517.65h-42.56v-1.14l13.68-7.6V383.88l-13.68-7.6v-1.14h41.23c38.95,0,59.28,15.96,59.28,43.51
			c0,26.22-21.47,43.51-59.66,43.51h-15.77v46.74l17.48,7.6V517.65z M450.25,381.79v73.72h16.91c32.68,0,46.17-12.16,46.17-36.1
			c0-24.89-16.72-37.62-47.5-37.62H450.25z"/>
		<path class="st7" d="M591.8,517.65h-42.56v-1.14l13.68-7.6V383.88l-13.68-7.6v-1.14h47.5c38.38,0,53.96,13.87,53.96,37.81
			c0,20.71-14.25,35.53-33.44,39.9l35.72,54.91l19.76,8.55v1.33h-37.05v-1.33l6.08-6.08l-35.72-56.05h-31.73v54.72l17.48,7.41
			V517.65z M574.32,381.79v65.74h26.22c24.51,0,37.81-11.78,37.81-33.82c0-21.28-14.82-31.92-42.18-31.92H574.32z"/>
		<path class="st7" d="M690.61,516.51l13.68-7.6V383.88l-13.68-7.6v-1.14h101.85v27.93h-0.95l-16.72-21.28h-59.09v60.8h51.87
			l11.59-16.53h0.95v41.61h-0.95l-11.59-18.43h-51.87V511h60.8l16.91-22.23h0.95v28.88H690.61V516.51z"/>
		<path class="st7" d="M825.52,516.32V488.2h0.95l20.9,22.23c8.17,2.28,14.63,2.66,19.57,2.66c22.61,0,36.1-11.59,36.1-27.55
			c0-16.91-14.25-26.22-38.57-38c-30.4-14.82-37.81-25.46-37.81-41.42c0-22.42,21.28-32.87,42.37-32.87
			c13.87,0,25.27,1.52,35.91,3.42v28.12h-0.95l-19.76-23.56c-6.46-1.14-11.59-1.52-16.72-1.52c-15.96,0-30.21,8.17-30.21,23.75
			c0,11.02,5.32,20.71,31.54,33.63c34.58,16.91,44.84,27.93,44.84,43.89c0,26.03-19.57,38.57-49.78,38.57
			C852.31,519.55,837.11,517.65,825.52,516.32z"/>
		<path class="st7" d="M1016.86,519.55c-39.52,0-76.19-28.31-76.19-74.3c0-44.27,37.62-72.01,76.76-72.01
			c15.58,0,30.59,2.28,43.7,9.31v22.23h-0.95l-19.19-21.66c-7.6-2.47-15.96-3.42-24.51-3.42c-35.91,0-63.46,24.7-63.46,64.98
			c0,41.23,28.69,68.4,64.79,68.4c8.36,0,16.34-0.57,23.75-2.09l20.52-23.37h0.95v23.18
			C1049.54,517.65,1033.58,519.55,1016.86,519.55z"/>
		<path class="st7" d="M1087.73,446.39c0-45.79,35.15-73.15,71.82-73.15c36.86,0,72.39,28.69,72.39,73.15
			c0,45.79-34.39,73.16-72.01,73.16C1121.17,519.55,1087.73,490.86,1087.73,446.39z M1219.6,448.67c0-41.42-26.6-68.97-60.04-68.97
			c-33.63,0-59.47,24.32-59.47,63.84c0,41.99,26.41,69.54,59.85,69.54C1193.57,513.09,1219.6,488.77,1219.6,448.67z"/>
		<path class="st7" d="M1326.39,517.65h-38.76v-1.14l13.68-7.6V381.79h-33.63l-15.58,22.99h-0.95v-29.64h111.73v29.64h-0.95
			l-15.58-22.99h-33.63v127.12l13.68,7.6V517.65z"/>
		<path class="st7" d="M1456.35,517.65h-38.76v-1.14l13.68-7.6V381.79h-33.63l-15.58,22.99h-0.95v-29.64h111.73v29.64h-0.95
			l-15.58-22.99h-33.63v127.12l13.68,7.6V517.65z"/>
		<path class="st8" d="M740.99,705.48h-26.12v-0.77l9.22-5.12v-84.27l-9.22-5.12v-0.77h26.12v0.77l-9.22,5.12v38.55h56.73v-38.55
			l-9.22-5.12v-0.77h26.12v0.77l-9.22,5.12v84.27l9.22,5.12v0.77h-26.12v-0.77l9.22-5.12v-41.24h-56.73v41.24l9.22,5.12V705.48z"/>
		<path class="st8" d="M823.34,657.46c0-30.86,23.69-49.3,48.41-49.3c24.84,0,48.79,19.34,48.79,49.3c0,30.86-23.18,49.3-48.54,49.3
			C845.88,706.76,823.34,687.42,823.34,657.46z M912.22,658.99c0-27.92-17.93-46.49-40.47-46.49c-22.67,0-40.08,16.39-40.08,43.03
			c0,28.3,17.8,46.87,40.34,46.87C894.67,702.41,912.22,686.02,912.22,658.99z"/>
		<path class="st8" d="M946.28,673.21V615.2l-9.22-5v-0.77h26.12v0.77l-9.22,5v58.27c0,23.95,16.65,28.56,30.73,28.56
			c10.76,0,27.53-3.84,27.53-26.51v-59.16l-9.22-6.15v-0.77h23.31v0.77l-8.97,6.15v55.32c0,25.36-12.16,35.09-35.47,35.09
			C968.44,706.76,946.28,701.77,946.28,673.21z"/>
		<path class="st8" d="M1043.74,704.58v-18.95h0.64l14.09,14.98c5.51,1.54,9.86,1.79,13.19,1.79c15.24,0,24.33-7.81,24.33-18.57
			c0-11.4-9.61-17.67-26-25.61c-20.49-9.99-25.48-17.16-25.48-27.92c0-15.11,14.34-22.15,28.56-22.15c9.35,0,17.03,1.02,24.2,2.3
			v18.95h-0.64l-13.32-15.88c-4.35-0.77-7.81-1.03-11.27-1.03c-10.76,0-20.36,5.51-20.36,16.01c0,7.43,3.59,13.96,21.26,22.67
			c23.31,11.4,30.22,18.83,30.22,29.58c0,17.54-13.19,25.99-33.55,25.99C1061.8,706.76,1051.55,705.48,1043.74,704.58z"/>
		<path class="st8" d="M1120.33,704.71l9.22-5.12v-84.27l-9.22-5.12v-0.77h68.64v18.82h-0.64l-11.27-14.34h-39.83v40.98h34.96
			l7.81-11.14h0.64v28.05H1180l-7.81-12.42h-34.96V701h40.98l11.4-14.98h0.64v19.46h-69.92V704.71z"/>
	</g>
</g>
</svg>
